<svg xmlns="http://www.w3.org/2000/svg" width="32" height="32" viewBox="0 0 32 32">
    <path fill="#333" d="M28 5H4C1.791 5 0 6.792 0 9v13c0 2.209 1.791 4 4 4h24c2.209 0 4-1.791 4-4V9c0-2.208-1.791-4-4-4zM2 10.25l6.999 5.25L2 20.75v-10.5zM30 22c0 1.104-.898 2-2 2H4c-1.103 0-2-.896-2-2l7.832-5.875 4.368 3.277c.533.397 1.166.6 1.8.6.633 0 1.266-.201 1.799-.6l4.369-3.277L30 22zm0-1.25l-7-5.25 7-5.25v10.5zm-12.801-2.148c-.35.263-.763.4-1.199.4s-.851-.139-1.2-.4L10.665 15.5l-.833-.625L2 9.001V9c0-1.103.897-2 2-2h24c1.102 0 2 .897 2 2l-12.801 9.602z"/>
</svg>
