<svg xmlns="http://www.w3.org/2000/svg" width="46.575" height="27.332" viewBox="46.212 56.834 46.575 27.332">
    <path d="M88.882 56.834H50.116c-2.156 0-3.904 1.749-3.904 3.905V80.26c0 2.156 1.748 3.905 3.904 3.905h38.766c2.156 0 3.905-1.749 3.905-3.905V60.739c0-2.156-1.749-3.905-3.905-3.905zm-39.647 24.95V59.551h40.202v22.233H49.235z"/>
    <path d="M53.14 77.88h32.395V63.456H53.14V77.88zM69.5 65.354c2.936 0 5.315 2.38 5.315 5.314 0 2.936-2.379 5.314-5.315 5.314s-5.314-2.379-5.314-5.314c-.001-2.935 2.378-5.314 5.314-5.314z"/>
</svg>
